<svg width="365" height="306" viewBox="0 0 365 306" fill="none" xmlns="http://www.w3.org/2000/svg">
<rect width="364" height="306" transform="translate(1)" fill="white"/>
<rect x="1" y="8" width="77" height="274" rx="2" fill="#F2F3F3"/>
<rect x="125" y="8" width="77" height="274" rx="2" fill="#F2F3F3"/>
<rect x="249" y="8" width="77" height="274" rx="2" fill="#F2F3F3"/>
<path d="M23.7 240.122H49.2C49.9 240.122 50.5 240.724 50.5 241.427V267.014C50.5 267.716 49.9 268.318 49.2 268.318H23.7C23 268.318 22.4 267.716 22.4 267.014V241.427C22.4 240.724 23 240.122 23.7 240.122Z" stroke="#545B64" stroke-miterlimit="10" stroke-linejoin="round"/>
<path d="M27.8 260.893V247.447C27.8 246.344 28.7 245.44 29.8 245.44H43.2C44.3 245.44 45.2 246.344 45.2 247.447V260.893C45.2 261.997 44.3 262.9 43.2 262.9H29.8C28.7 262.9 27.8 262.097 27.8 260.893Z" stroke="#545B64" stroke-miterlimit="10" stroke-linejoin="round"/>
<path d="M18 248.651H22.4" stroke="#545B64" stroke-miterlimit="10" stroke-linejoin="round"/>
<path d="M18 242.832H22.4" stroke="#545B64" stroke-miterlimit="10" stroke-linejoin="round"/>
<path d="M18 254.471H22.4" stroke="#545B64" stroke-miterlimit="10" stroke-linejoin="round"/>
<path d="M18 260.291H22.4" stroke="#545B64" stroke-miterlimit="10" stroke-linejoin="round"/>
<path d="M18 266.111H22.4" stroke="#545B64" stroke-miterlimit="10" stroke-linejoin="round"/>
<path d="M30.4 272.833V268.318" stroke="#545B64" stroke-miterlimit="10" stroke-linejoin="round"/>
<path d="M24.6 272.833V268.318" stroke="#545B64" stroke-miterlimit="10" stroke-linejoin="round"/>
<path d="M36.2 272.833V268.318" stroke="#545B64" stroke-miterlimit="10" stroke-linejoin="round"/>
<path d="M42 272.833V268.318" stroke="#545B64" stroke-miterlimit="10" stroke-linejoin="round"/>
<path d="M47.8 272.833V268.318" stroke="#545B64" stroke-miterlimit="10" stroke-linejoin="round"/>
<path d="M30.4 240.122V235.707" stroke="#545B64" stroke-miterlimit="10" stroke-linejoin="round"/>
<path d="M24.6 240.122V235.707" stroke="#545B64" stroke-miterlimit="10" stroke-linejoin="round"/>
<path d="M36.2 240.122V235.707" stroke="#545B64" stroke-miterlimit="10" stroke-linejoin="round"/>
<path d="M42 240.122V235.707" stroke="#545B64" stroke-miterlimit="10" stroke-linejoin="round"/>
<path d="M47.8 240.122V235.707" stroke="#545B64" stroke-miterlimit="10" stroke-linejoin="round"/>
<path d="M50.5 248.651H55" stroke="#545B64" stroke-miterlimit="10" stroke-linejoin="round"/>
<path d="M50.5 242.832H55" stroke="#545B64" stroke-miterlimit="10" stroke-linejoin="round"/>
<path d="M50.5 254.471H55" stroke="#545B64" stroke-miterlimit="10" stroke-linejoin="round"/>
<path d="M50.5 260.291H55" stroke="#545B64" stroke-miterlimit="10" stroke-linejoin="round"/>
<path d="M50.5 266.111H55" stroke="#545B64" stroke-miterlimit="10" stroke-linejoin="round"/>
<path d="M151.7 240.122H177.2C177.9 240.122 178.5 240.724 178.5 241.427V267.014C178.5 267.716 177.9 268.318 177.2 268.318H151.7C151 268.318 150.4 267.716 150.4 267.014V241.427C150.4 240.724 151 240.122 151.7 240.122Z" stroke="#545B64" stroke-miterlimit="10" stroke-linejoin="round"/>
<path d="M155.8 260.893V247.447C155.8 246.344 156.7 245.44 157.8 245.44H171.2C172.3 245.44 173.2 246.344 173.2 247.447V260.893C173.2 261.997 172.3 262.9 171.2 262.9H157.8C156.7 262.9 155.8 262.097 155.8 260.893Z" stroke="#545B64" stroke-miterlimit="10" stroke-linejoin="round"/>
<path d="M146 248.651H150.4" stroke="#545B64" stroke-miterlimit="10" stroke-linejoin="round"/>
<path d="M146 242.832H150.4" stroke="#545B64" stroke-miterlimit="10" stroke-linejoin="round"/>
<path d="M146 254.471H150.4" stroke="#545B64" stroke-miterlimit="10" stroke-linejoin="round"/>
<path d="M146 260.291H150.4" stroke="#545B64" stroke-miterlimit="10" stroke-linejoin="round"/>
<path d="M146 266.111H150.4" stroke="#545B64" stroke-miterlimit="10" stroke-linejoin="round"/>
<path d="M158.4 272.833V268.318" stroke="#545B64" stroke-miterlimit="10" stroke-linejoin="round"/>
<path d="M152.6 272.833V268.318" stroke="#545B64" stroke-miterlimit="10" stroke-linejoin="round"/>
<path d="M164.2 272.833V268.318" stroke="#545B64" stroke-miterlimit="10" stroke-linejoin="round"/>
<path d="M170 272.833V268.318" stroke="#545B64" stroke-miterlimit="10" stroke-linejoin="round"/>
<path d="M175.8 272.833V268.318" stroke="#545B64" stroke-miterlimit="10" stroke-linejoin="round"/>
<path d="M158.4 240.122V235.707" stroke="#545B64" stroke-miterlimit="10" stroke-linejoin="round"/>
<path d="M152.6 240.122V235.707" stroke="#545B64" stroke-miterlimit="10" stroke-linejoin="round"/>
<path d="M164.2 240.122V235.707" stroke="#545B64" stroke-miterlimit="10" stroke-linejoin="round"/>
<path d="M170 240.122V235.707" stroke="#545B64" stroke-miterlimit="10" stroke-linejoin="round"/>
<path d="M175.8 240.122V235.707" stroke="#545B64" stroke-miterlimit="10" stroke-linejoin="round"/>
<path d="M178.5 248.651H183" stroke="#545B64" stroke-miterlimit="10" stroke-linejoin="round"/>
<path d="M178.5 242.832H183" stroke="#545B64" stroke-miterlimit="10" stroke-linejoin="round"/>
<path d="M178.5 254.471H183" stroke="#545B64" stroke-miterlimit="10" stroke-linejoin="round"/>
<path d="M178.5 260.291H183" stroke="#545B64" stroke-miterlimit="10" stroke-linejoin="round"/>
<path d="M178.5 266.111H183" stroke="#545B64" stroke-miterlimit="10" stroke-linejoin="round"/>
<path d="M278.7 240.122H304.2C304.9 240.122 305.5 240.724 305.5 241.427V267.014C305.5 267.716 304.9 268.318 304.2 268.318H278.7C278 268.318 277.4 267.716 277.4 267.014V241.427C277.4 240.724 278 240.122 278.7 240.122Z" stroke="#545B64" stroke-miterlimit="10" stroke-linejoin="round"/>
<path d="M282.8 260.893V247.447C282.8 246.344 283.7 245.44 284.8 245.44H298.2C299.3 245.44 300.2 246.344 300.2 247.447V260.893C300.2 261.997 299.3 262.9 298.2 262.9H284.8C283.7 262.9 282.8 262.097 282.8 260.893Z" stroke="#545B64" stroke-miterlimit="10" stroke-linejoin="round"/>
<path d="M273 248.651H277.4" stroke="#545B64" stroke-miterlimit="10" stroke-linejoin="round"/>
<path d="M273 242.832H277.4" stroke="#545B64" stroke-miterlimit="10" stroke-linejoin="round"/>
<path d="M273 254.471H277.4" stroke="#545B64" stroke-miterlimit="10" stroke-linejoin="round"/>
<path d="M273 260.291H277.4" stroke="#545B64" stroke-miterlimit="10" stroke-linejoin="round"/>
<path d="M273 266.111H277.4" stroke="#545B64" stroke-miterlimit="10" stroke-linejoin="round"/>
<path d="M285.4 272.833V268.318" stroke="#545B64" stroke-miterlimit="10" stroke-linejoin="round"/>
<path d="M279.6 272.833V268.318" stroke="#545B64" stroke-miterlimit="10" stroke-linejoin="round"/>
<path d="M291.2 272.833V268.318" stroke="#545B64" stroke-miterlimit="10" stroke-linejoin="round"/>
<path d="M297 272.833V268.318" stroke="#545B64" stroke-miterlimit="10" stroke-linejoin="round"/>
<path d="M302.8 272.833V268.318" stroke="#545B64" stroke-miterlimit="10" stroke-linejoin="round"/>
<path d="M285.4 240.122V235.707" stroke="#545B64" stroke-miterlimit="10" stroke-linejoin="round"/>
<path d="M279.6 240.122V235.707" stroke="#545B64" stroke-miterlimit="10" stroke-linejoin="round"/>
<path d="M291.2 240.122V235.707" stroke="#545B64" stroke-miterlimit="10" stroke-linejoin="round"/>
<path d="M297 240.122V235.707" stroke="#545B64" stroke-miterlimit="10" stroke-linejoin="round"/>
<path d="M302.8 240.122V235.707" stroke="#545B64" stroke-miterlimit="10" stroke-linejoin="round"/>
<path d="M305.5 248.651H310" stroke="#545B64" stroke-miterlimit="10" stroke-linejoin="round"/>
<path d="M305.5 242.832H310" stroke="#545B64" stroke-miterlimit="10" stroke-linejoin="round"/>
<path d="M305.5 254.471H310" stroke="#545B64" stroke-miterlimit="10" stroke-linejoin="round"/>
<path d="M305.5 260.291H310" stroke="#545B64" stroke-miterlimit="10" stroke-linejoin="round"/>
<path d="M305.5 266.111H310" stroke="#545B64" stroke-miterlimit="10" stroke-linejoin="round"/>
<path d="M11.944 25L11.258 22.788H7.94L7.282 25H5.084L8.5 15.298H10.81L14.226 25H11.944ZM8.388 21.276H10.824L9.592 17.216L8.388 21.276ZM14.8425 25V23.488L19.8405 16.922H15.0945V15.298H22.1085V16.81L17.1385 23.376H22.1505V25H14.8425ZM26.4717 25V17.342L23.9797 18.126V16.53L26.7097 15.298H28.5437V25H26.4717Z" fill="#232F3E"/>
<path d="M135.944 24L135.258 21.788H131.94L131.282 24H129.084L132.5 14.298H134.81L138.226 24H135.944ZM132.388 20.276H134.824L133.592 16.216L132.388 20.276ZM138.843 24V22.488L143.841 15.922H139.095V14.298H146.109V15.81L141.139 22.376H146.151V24H138.843ZM151.364 15.18C151.886 14.7787 152.395 14.494 152.89 14.326C153.394 14.1487 153.949 14.06 154.556 14.06C155.442 14.06 156.152 14.3073 156.684 14.802C157.225 15.2967 157.496 15.95 157.496 16.762C157.496 17.2473 157.36 17.7513 157.09 18.274C156.819 18.7967 156.39 19.3893 155.802 20.052C155.214 20.7053 154.425 21.48 153.436 22.376H157.888V24H151.112V22.488C152.306 21.284 153.198 20.346 153.786 19.674C154.383 18.9927 154.794 18.4467 155.018 18.036C155.251 17.6253 155.368 17.2473 155.368 16.902C155.368 16.5473 155.26 16.272 155.046 16.076C154.831 15.8707 154.542 15.768 154.178 15.768C153.767 15.768 153.319 15.8613 152.834 16.048C152.348 16.2347 151.858 16.5007 151.364 16.846V15.18Z" fill="#232F3E"/>
<path d="M259.944 24L259.258 21.788H255.94L255.282 24H253.084L256.5 14.298H258.81L262.226 24H259.944ZM256.388 20.276H258.824L257.592 16.216L256.388 20.276ZM262.843 24V22.488L267.841 15.922H263.095V14.298H270.109V15.81L265.139 22.376H270.151V24H262.843ZM278.766 18.344C279.662 18.3907 280.366 18.6567 280.88 19.142C281.393 19.6273 281.65 20.2667 281.65 21.06C281.65 21.676 281.496 22.222 281.188 22.698C280.889 23.174 280.45 23.5473 279.872 23.818C279.293 24.0793 278.616 24.21 277.842 24.21C276.964 24.21 276.082 24.0187 275.196 23.636V22.054C276.241 22.4087 277.1 22.586 277.772 22.586C278.369 22.586 278.822 22.46 279.13 22.208C279.447 21.9467 279.606 21.5687 279.606 21.074C279.606 20.6353 279.461 20.3133 279.172 20.108C278.882 19.8933 278.434 19.786 277.828 19.786C277.706 19.786 277.496 19.8 277.198 19.828C276.908 19.8467 276.684 19.8653 276.526 19.884V18.596L279.032 15.894H275.322V14.298H281.23V15.838L278.766 18.344Z" fill="#232F3E"/>
<path d="M36 185.541V225.677" stroke="#EB5F07" stroke-width="2" stroke-miterlimit="10" stroke-linecap="square"/>
<path d="M291 185.541V225.677" stroke="#EB5F07" stroke-width="2" stroke-miterlimit="10" stroke-linecap="square"/>
<path d="M164 185.541V225.677" stroke="#EB5F07" stroke-width="2" stroke-miterlimit="10" stroke-linecap="square"/>
<path d="M36 78.0204V118.157" stroke="#EB5F07" stroke-width="2" stroke-miterlimit="10" stroke-linecap="square"/>
<path d="M291 78.0204V118.157" stroke="#EB5F07" stroke-width="2" stroke-miterlimit="10" stroke-linecap="square"/>
<path d="M164 78.0204V118.157" stroke="#EB5F07" stroke-width="2" stroke-miterlimit="10" stroke-linecap="square"/>
<path d="M140.206 132H3C1.89543 132 1 132.895 1 134V179C1 180.105 1.89542 181 2.99999 181H324C325.105 181 326 180.105 326 179V134C326 132.895 325.105 132 324 132H186.794" stroke="#232F3E"/>
<path d="M152.968 130.589V137.323H151.12V127.621H153.36L157.308 134.411V127.621H159.156V137.323H156.916L152.968 130.589ZM161.401 137.323V127.621H163.501V135.643H167.757V137.323H161.401ZM169.003 137.323V127.621H172.489C173.422 127.621 174.173 127.859 174.743 128.335C175.321 128.811 175.611 129.432 175.611 130.197C175.611 130.673 175.499 131.084 175.275 131.429C175.06 131.765 174.738 132.026 174.309 132.213C174.906 132.39 175.359 132.684 175.667 133.095C175.984 133.496 176.143 133.991 176.143 134.579C176.143 135.419 175.83 136.086 175.205 136.581C174.579 137.076 173.739 137.323 172.685 137.323H169.003ZM170.991 133.095V135.825H172.643C173.595 135.825 174.071 135.377 174.071 134.481C174.071 133.557 173.562 133.095 172.545 133.095H170.991ZM170.991 129.119V131.667H172.209C173.114 131.667 173.567 131.247 173.567 130.407C173.567 129.548 173.151 129.119 172.321 129.119H170.991Z" fill="black"/>
<path fill-rule="evenodd" clip-rule="evenodd" d="M32 165.476C28.141 165.476 25 162.325 25 158.452C25 154.579 28.141 151.429 32 151.429C35.859 151.429 39 154.579 39 158.452C39 162.325 35.859 165.476 32 165.476M46 166.48C47.103 166.48 48 167.38 48 168.486C48 169.593 47.103 170.493 46 170.493C44.897 170.493 44 169.593 44 168.486C44 167.38 44.897 166.48 46 166.48M46 146.412C47.103 146.412 48 147.312 48 148.418C48 149.525 47.103 150.425 46 150.425C44.897 150.425 44 149.525 44 148.418C44 147.312 44.897 146.412 46 146.412M47 156.947C48.103 156.947 49 157.847 49 158.954C49 160.061 48.103 160.961 47 160.961C45.897 160.961 45 160.061 45 158.954C45 157.847 45.897 156.947 47 156.947M39.931 159.456H44.051C44.29 160.877 45.517 161.964 47 161.964C48.654 161.964 50 160.614 50 158.954C50 157.294 48.654 155.944 47 155.944C45.517 155.944 44.29 157.032 44.051 158.452H40C40 156.958 39.584 155.563 38.872 154.363L43.699 150.327C44.25 150.994 45.071 151.429 46 151.429C47.654 151.429 49 150.078 49 148.418C49 146.759 47.654 145.408 46 145.408C44.346 145.408 43 146.759 43 148.418C43 148.781 43.074 149.123 43.191 149.444L38.306 153.53C36.84 151.644 34.562 150.425 32 150.425C27.589 150.425 24 154.026 24 158.452C24 162.878 27.589 166.48 32 166.48C34.562 166.48 36.84 165.26 38.306 163.375L43.191 167.461C43.074 167.782 43 168.124 43 168.486C43 170.146 44.346 171.497 46 171.497C47.654 171.497 49 170.146 49 168.486C49 166.827 47.654 165.476 46 165.476C45.071 165.476 44.25 165.911 43.699 166.578L38.872 162.541C39.422 161.615 39.791 160.573 39.931 159.456" fill="#545B64"/>
<path fill-rule="evenodd" clip-rule="evenodd" d="M286 165.476C282.141 165.476 279 162.325 279 158.452C279 154.579 282.141 151.429 286 151.429C289.859 151.429 293 154.579 293 158.452C293 162.325 289.859 165.476 286 165.476M300 166.48C301.103 166.48 302 167.38 302 168.486C302 169.593 301.103 170.493 300 170.493C298.897 170.493 298 169.593 298 168.486C298 167.38 298.897 166.48 300 166.48M300 146.412C301.103 146.412 302 147.312 302 148.418C302 149.525 301.103 150.425 300 150.425C298.897 150.425 298 149.525 298 148.418C298 147.312 298.897 146.412 300 146.412M301 156.947C302.103 156.947 303 157.847 303 158.954C303 160.061 302.103 160.961 301 160.961C299.897 160.961 299 160.061 299 158.954C299 157.847 299.897 156.947 301 156.947M293.931 159.456H298.051C298.29 160.877 299.517 161.964 301 161.964C302.654 161.964 304 160.614 304 158.954C304 157.294 302.654 155.944 301 155.944C299.517 155.944 298.29 157.032 298.051 158.452H294C294 156.958 293.584 155.563 292.872 154.363L297.699 150.327C298.25 150.994 299.071 151.429 300 151.429C301.654 151.429 303 150.078 303 148.418C303 146.759 301.654 145.408 300 145.408C298.346 145.408 297 146.759 297 148.418C297 148.781 297.074 149.123 297.191 149.444L292.306 153.53C290.84 151.644 288.562 150.425 286 150.425C281.589 150.425 278 154.026 278 158.452C278 162.878 281.589 166.48 286 166.48C288.562 166.48 290.84 165.26 292.306 163.375L297.191 167.461C297.074 167.782 297 168.124 297 168.486C297 170.146 298.346 171.497 300 171.497C301.654 171.497 303 170.146 303 168.486C303 166.827 301.654 165.476 300 165.476C299.071 165.476 298.25 165.911 297.699 166.578L292.872 162.541C293.422 161.615 293.791 160.573 293.931 159.456" fill="#545B64"/>
<path fill-rule="evenodd" clip-rule="evenodd" d="M159 165.476C155.141 165.476 152 162.325 152 158.452C152 154.579 155.141 151.429 159 151.429C162.859 151.429 166 154.579 166 158.452C166 162.325 162.859 165.476 159 165.476M173 166.48C174.103 166.48 175 167.38 175 168.486C175 169.593 174.103 170.493 173 170.493C171.897 170.493 171 169.593 171 168.486C171 167.38 171.897 166.48 173 166.48M173 146.412C174.103 146.412 175 147.312 175 148.418C175 149.525 174.103 150.425 173 150.425C171.897 150.425 171 149.525 171 148.418C171 147.312 171.897 146.412 173 146.412M174 156.947C175.103 156.947 176 157.847 176 158.954C176 160.061 175.103 160.961 174 160.961C172.897 160.961 172 160.061 172 158.954C172 157.847 172.897 156.947 174 156.947M166.931 159.456H171.051C171.29 160.877 172.517 161.964 174 161.964C175.654 161.964 177 160.614 177 158.954C177 157.294 175.654 155.944 174 155.944C172.517 155.944 171.29 157.032 171.051 158.452H167C167 156.958 166.584 155.563 165.872 154.363L170.699 150.327C171.25 150.994 172.071 151.429 173 151.429C174.654 151.429 176 150.078 176 148.418C176 146.759 174.654 145.408 173 145.408C171.346 145.408 170 146.759 170 148.418C170 148.781 170.074 149.123 170.191 149.444L165.306 153.53C163.84 151.644 161.562 150.425 159 150.425C154.589 150.425 151 154.026 151 158.452C151 162.878 154.589 166.48 159 166.48C161.562 166.48 163.84 165.26 165.306 163.375L170.191 167.461C170.074 167.782 170 168.124 170 168.486C170 170.146 171.346 171.497 173 171.497C174.654 171.497 176 170.146 176 168.486C176 166.827 174.654 165.476 173 165.476C172.071 165.476 171.25 165.911 170.699 166.578L165.872 162.541C166.422 161.615 166.791 160.573 166.931 159.456" fill="#545B64"/>
<path fill-rule="evenodd" clip-rule="evenodd" d="M51.1247 63.2265V64.8071C51.1247 65.1671 50.8338 65.4598 50.4729 65.4598H41.6416C41.2808 65.4598 40.989 65.1671 40.989 64.8071V63.2265C40.989 62.8664 41.2808 62.5746 41.6416 62.5746H50.4729C50.8338 62.5746 51.1247 62.8664 51.1247 63.2265ZM52.3561 66.2069C52.3561 66.4987 52.1185 66.7371 51.8267 66.7371H20.1741C19.8815 66.7371 19.6439 66.4987 19.6439 66.2069V61.7781C19.6439 61.4863 19.8815 61.2488 20.1741 61.2488H51.8267C52.1185 61.2488 52.3561 61.4863 52.3561 61.7781V66.2069ZM51.8267 59.6048H20.1741C18.9757 59.6048 18 60.5797 18 61.7781V66.2069C18 67.4054 18.9757 68.381 20.1741 68.381H51.8267C53.0251 68.381 54 67.4054 54 66.2069V61.7781C54 60.5797 53.0251 59.6048 51.8267 59.6048ZM22.5217 53.722H49.452V37.5225H22.5217V53.722ZM49.9271 35.8786H22.0474C21.403 35.8786 20.8777 36.4022 20.8777 37.0466V54.1971C20.8777 54.8415 21.403 55.3659 22.0474 55.3659H49.9271C50.5715 55.3659 51.096 54.8415 51.096 54.1971V37.0466C51.096 36.4022 50.5715 35.8786 49.9271 35.8786ZM52.3561 56.0703C52.3561 56.3621 52.1185 56.5997 51.8267 56.5997H20.1741C19.8815 56.5997 19.6439 56.3621 19.6439 56.0703V35.1733C19.6439 34.8815 19.8815 34.6439 20.1741 34.6439H51.8267C52.1185 34.6439 52.3561 34.8815 52.3561 35.1733V56.0703ZM51.8267 33H20.1741C18.9757 33 18 33.9749 18 35.1733V56.0703C18 57.2688 18.9757 58.2436 20.1741 58.2436H51.8267C53.0251 58.2436 54 57.2688 54 56.0703V35.1733C54 33.9749 53.0251 33 51.8267 33Z" fill="#687078"/>
<path fill-rule="evenodd" clip-rule="evenodd" d="M306.125 63.2265V64.8071C306.125 65.1671 305.834 65.4598 305.473 65.4598H296.642C296.281 65.4598 295.989 65.1671 295.989 64.8071V63.2265C295.989 62.8664 296.281 62.5746 296.642 62.5746H305.473C305.834 62.5746 306.125 62.8664 306.125 63.2265ZM307.356 66.2069C307.356 66.4987 307.119 66.7371 306.827 66.7371H275.174C274.881 66.7371 274.644 66.4987 274.644 66.2069V61.7781C274.644 61.4863 274.881 61.2488 275.174 61.2488H306.827C307.119 61.2488 307.356 61.4863 307.356 61.7781V66.2069ZM306.827 59.6048H275.174C273.976 59.6048 273 60.5797 273 61.7781V66.2069C273 67.4054 273.976 68.381 275.174 68.381H306.827C308.025 68.381 309 67.4054 309 66.2069V61.7781C309 60.5797 308.025 59.6048 306.827 59.6048ZM277.522 53.722H304.452V37.5225H277.522V53.722ZM304.927 35.8786H277.047C276.403 35.8786 275.878 36.4022 275.878 37.0466V54.1971C275.878 54.8415 276.403 55.3659 277.047 55.3659H304.927C305.572 55.3659 306.096 54.8415 306.096 54.1971V37.0466C306.096 36.4022 305.572 35.8786 304.927 35.8786ZM307.356 56.0703C307.356 56.3621 307.119 56.5997 306.827 56.5997H275.174C274.881 56.5997 274.644 56.3621 274.644 56.0703V35.1733C274.644 34.8815 274.881 34.6439 275.174 34.6439H306.827C307.119 34.6439 307.356 34.8815 307.356 35.1733V56.0703ZM306.827 33H275.174C273.976 33 273 33.9749 273 35.1733V56.0703C273 57.2688 273.976 58.2436 275.174 58.2436H306.827C308.025 58.2436 309 57.2688 309 56.0703V35.1733C309 33.9749 308.025 33 306.827 33Z" fill="#687078"/>
<path fill-rule="evenodd" clip-rule="evenodd" d="M179.125 63.2265V64.8071C179.125 65.1671 178.834 65.4598 178.473 65.4598H169.642C169.281 65.4598 168.989 65.1671 168.989 64.8071V63.2265C168.989 62.8664 169.281 62.5746 169.642 62.5746H178.473C178.834 62.5746 179.125 62.8664 179.125 63.2265ZM180.356 66.2069C180.356 66.4987 180.119 66.7371 179.827 66.7371H148.174C147.881 66.7371 147.644 66.4987 147.644 66.2069V61.7781C147.644 61.4863 147.881 61.2488 148.174 61.2488H179.827C180.119 61.2488 180.356 61.4863 180.356 61.7781V66.2069ZM179.827 59.6048H148.174C146.976 59.6048 146 60.5797 146 61.7781V66.2069C146 67.4054 146.976 68.381 148.174 68.381H179.827C181.025 68.381 182 67.4054 182 66.2069V61.7781C182 60.5797 181.025 59.6048 179.827 59.6048ZM150.522 53.722H177.452V37.5225H150.522V53.722ZM177.927 35.8786H150.047C149.403 35.8786 148.878 36.4022 148.878 37.0466V54.1971C148.878 54.8415 149.403 55.3659 150.047 55.3659H177.927C178.572 55.3659 179.096 54.8415 179.096 54.1971V37.0466C179.096 36.4022 178.572 35.8786 177.927 35.8786ZM180.356 56.0703C180.356 56.3621 180.119 56.5997 179.827 56.5997H148.174C147.881 56.5997 147.644 56.3621 147.644 56.0703V35.1733C147.644 34.8815 147.881 34.6439 148.174 34.6439H179.827C180.119 34.6439 180.356 34.8815 180.356 35.1733V56.0703ZM179.827 33H148.174C146.976 33 146 33.9749 146 35.1733V56.0703C146 57.2688 146.976 58.2436 148.174 58.2436H179.827C181.025 58.2436 182 57.2688 182 56.0703V35.1733C182 33.9749 181.025 33 179.827 33Z" fill="#687078"/>
<path d="M334 127H346C347.105 127 348 126.105 348 125V115M334 70H346C347.105 70 348 70.8954 348 72V82" stroke="#2A2E33"/>
<path fill-rule="evenodd" clip-rule="evenodd" d="M352.024 99.3144C352.367 99.6307 352.538 100.055 352.538 100.586C352.538 101.166 352.33 101.628 351.914 101.974C351.498 102.319 350.937 102.492 350.235 102.492C349.679 102.492 349.13 102.373 348.587 102.138V101.428C349.23 101.642 349.78 101.748 350.235 101.748C350.683 101.748 351.029 101.647 351.271 101.446C351.513 101.246 351.634 100.958 351.634 100.586C351.634 99.8713 351.182 99.514 350.279 99.514C349.995 99.514 349.715 99.5289 349.437 99.5579V98.9731L351.297 96.9431H348.675V96.2166H352.282V96.9172L350.456 98.8493C350.486 98.8433 350.515 98.8403 350.545 98.8403H350.633C351.217 98.8403 351.681 98.999 352.024 99.3144M346.877 99.1597C347.236 99.496 347.417 99.9601 347.417 100.551C347.417 101.13 347.207 101.599 346.788 101.955C346.368 102.313 345.815 102.492 345.131 102.492C344.528 102.492 343.965 102.373 343.439 102.138V101.428C344.094 101.642 344.655 101.748 345.122 101.748C345.57 101.748 345.915 101.646 346.154 101.442C346.393 101.238 346.514 100.944 346.514 100.56C346.514 100.141 346.401 99.8353 346.176 99.6467C345.952 99.4581 345.586 99.3633 345.077 99.3633C344.711 99.3633 344.254 99.3932 343.704 99.4521V98.8663L343.873 96.2166H347.106V96.9431H344.617L344.501 98.7425C344.827 98.6836 345.119 98.6537 345.379 98.6537C346.017 98.6537 346.517 98.8224 346.877 99.1597M353.53 105.622C351.288 106.025 349.323 106.935 348 107.681C346.677 106.935 344.712 106.025 342.469 105.622C341.843 105.509 338.715 104.857 338.715 103.063C338.715 102.227 339.016 101.671 339.592 100.678C340.288 99.478 341.154 97.985 341.154 95.8303C341.154 94.3024 340.755 92.8343 339.967 91.4621L340.217 91.1557C342.827 92.4491 345.75 92.2745 348 90.8523C350.251 92.2735 353.173 92.4491 355.783 91.1557L356.033 91.4621C355.245 92.8343 354.845 94.3024 354.845 95.8303C354.845 97.985 355.711 99.478 356.408 100.678C356.984 101.671 357.284 102.227 357.284 103.063C357.284 104.857 354.157 105.509 353.53 105.622M355.842 95.8303C355.842 94.3762 356.252 92.981 357.062 91.6836C357.175 91.502 357.16 91.2685 357.026 91.1038L356.3 90.2106C356.148 90.022 355.881 89.9691 355.671 90.0878C354.536 90.7146 353.351 91.0329 352.152 91.0329C350.704 91.0329 349.438 90.6437 348.284 89.8433C348.113 89.7255 347.887 89.7255 347.716 89.8433C346.561 90.6437 345.296 91.0329 343.848 91.0329C342.649 91.0329 341.464 90.7146 340.328 90.0878C340.117 89.9691 339.851 90.022 339.7 90.2106L338.974 91.1038C338.839 91.2685 338.825 91.502 338.938 91.6836C339.747 92.981 340.157 94.3762 340.157 95.8303C340.157 97.7166 339.366 99.0808 338.729 100.177C338.103 101.257 337.718 101.975 337.718 103.063C337.718 105.587 341.22 106.411 342.293 106.604C344.539 107.007 346.5 107.959 347.749 108.687C347.826 108.733 347.913 108.754 348 108.754C348.087 108.754 348.174 108.733 348.251 108.687C349.5 107.959 351.461 107.007 353.706 106.604C354.78 106.411 358.281 105.587 358.281 103.063C358.281 101.975 357.897 101.257 357.271 100.177C356.634 99.0808 355.842 97.7166 355.842 95.8303M354.01 108.297C351.188 108.804 348.82 110.313 348 110.885C347.18 110.313 344.812 108.804 341.989 108.297C340.584 108.045 335.998 106.921 335.998 103.063C335.998 101.457 336.629 100.367 337.242 99.3134C337.829 98.3004 338.437 97.2535 338.437 95.8303C338.437 93.6128 337.172 92.0389 336.524 91.3782C337.2 90.5569 338.838 88.5599 339.671 87.488C340.934 88.6687 342.399 89.3124 343.848 89.3124C345.457 89.3124 346.79 88.6627 348 87.2764C349.21 88.6627 350.543 89.3124 352.152 89.3124C353.601 89.3124 355.066 88.6687 356.328 87.488C357.161 88.5599 358.8 90.5569 359.476 91.3782C358.827 92.0389 357.563 93.6128 357.563 95.8303C357.563 97.2535 358.171 98.3004 358.758 99.3134C359.37 100.367 360.002 101.457 360.002 103.063C360.002 106.921 355.415 108.045 354.01 108.297M359.621 98.8124C359.052 97.8313 358.561 96.984 358.561 95.8303C358.561 93.4002 360.453 91.8263 360.473 91.8104C360.575 91.7255 360.642 91.6038 360.654 91.4721C360.667 91.3403 360.628 91.2076 360.543 91.1048C360.512 91.0679 357.477 87.3892 356.784 86.4371C356.696 86.3174 356.56 86.2415 356.41 86.2335C356.267 86.2255 356.118 86.2824 356.016 86.3902C354.856 87.6307 353.484 88.3144 352.152 88.3144C350.681 88.3144 349.522 87.6577 348.396 86.1856C348.208 85.9381 347.792 85.9381 347.603 86.1856C346.477 87.6577 345.318 88.3144 343.848 88.3144C342.516 88.3144 341.144 87.6307 339.984 86.3902C339.882 86.2824 339.734 86.2265 339.589 86.2335C339.44 86.2415 339.304 86.3174 339.216 86.4371C338.523 87.3892 335.488 91.0679 335.457 91.1048C335.372 91.2076 335.332 91.3403 335.345 91.4731C335.358 91.6058 335.424 91.7265 335.528 91.8104C335.547 91.8263 337.439 93.3852 337.439 95.8303C337.439 96.984 336.948 97.8313 336.378 98.8124C335.732 99.9261 335 101.188 335 103.063C335 106.189 337.546 108.513 341.813 109.279C345.002 109.853 347.67 111.876 347.696 111.896C347.786 111.965 347.892 112 348 112C348.107 112 348.214 111.965 348.304 111.896C348.33 111.876 350.998 109.853 354.187 109.279C358.453 108.513 361 106.189 361 103.063C361 101.188 360.268 99.9261 359.621 98.8124" fill="#232F3E"/>
</svg>
