<svg xmlns="http://www.w3.org/2000/svg" viewBox="0 0 16 16" width="128" height="128" shape-rendering="crispEdges">
  <!-- Hair top -->
  <rect x="5" y="1" width="6" height="1" fill="#1a1a2e"/>
  <rect x="4" y="2" width="8" height="1" fill="#1a1a2e"/>
  <rect x="4" y="3" width="8" height="1" fill="#1a1a2e"/>
  <rect x="4" y="4" width="8" height="1" fill="#1a1a2e"/>
  <!-- Messy hair tufts -->
  <rect x="5" y="0" width="1" height="1" fill="#1a1a2e"/>
  <rect x="7" y="0" width="2" height="1" fill="#1a1a2e"/>
  <rect x="10" y="1" width="1" height="1" fill="#1a1a2e"/>

  <!-- Face -->
  <rect x="4" y="5" width="1" height="4" fill="#1a1a2e"/>
  <rect x="5" y="5" width="6" height="1" fill="#d4a574"/>
  <rect x="5" y="6" width="6" height="1" fill="#d4a574"/>
  <rect x="5" y="7" width="6" height="1" fill="#d4a574"/>
  <rect x="5" y="8" width="6" height="1" fill="#d4a574"/>
  <rect x="6" y="9" width="4" height="1" fill="#d4a574"/>
  <rect x="11" y="5" width="1" height="4" fill="#1a1a2e"/>

  <!-- Eyes -->
  <rect x="6" y="6" width="1" height="1" fill="#1a1a2e"/>
  <rect x="9" y="6" width="1" height="1" fill="#1a1a2e"/>

  <!-- Mouth -->
  <rect x="7" y="8" width="2" height="1" fill="#c4906a"/>

  <!-- Neck -->
  <rect x="7" y="10" width="2" height="1" fill="#d4a574"/>

  <!-- T-shirt -->
  <rect x="3" y="11" width="10" height="1" fill="#2d2d2d"/>
  <rect x="2" y="12" width="12" height="1" fill="#2d2d2d"/>
  <rect x="2" y="13" width="12" height="1" fill="#2d2d2d"/>
  <rect x="3" y="14" width="10" height="1" fill="#2d2d2d"/>
  <rect x="4" y="15" width="8" height="1" fill="#2d2d2d"/>

  <!-- Collar -->
  <rect x="6" y="11" width="4" height="1" fill="#3d3d3d"/>
</svg>
